<?xml version="1.0" encoding="UTF-8" standalone="no"?><!DOCTYPE svg PUBLIC "-//W3C//DTD SVG 1.1//EN" "http://www.w3.org/Graphics/SVG/1.1/DTD/svg11.dtd"><svg width="100%" height="100%" viewBox="0 0 851 840" version="1.1" xmlns="http://www.w3.org/2000/svg" xmlns:xlink="http://www.w3.org/1999/xlink" xml:space="preserve" xmlns:serif="http://www.serif.com/" style="fill-rule:evenodd;clip-rule:evenodd;stroke-linecap:round;"><g id="Layer-1" serif:id="Layer 1"><g id="text9935"><text x="50.005px" y="447.677px" style="font-family:'Monaco';font-size:25px;">1</text></g><rect id="use9941" x="40.79" y="422.545" width="33.443" height="31.32" style="fill:none;stroke:#000;stroke-width:1.59px;"/><rect id="rect15537" x="132.403" y="418.632" width="100.037" height="39.145" style="fill:none;stroke:#000;stroke-width:1.35px;"/><g id="text15541"><text x="134.314px" y="447.441px" style="font-family:'Monaco';font-size:32.061px;">Up_1d</text></g><g><g><g><g id="text58040"><text x="300.505px" y="447.677px" style="font-family:'Monaco';font-size:25px;">1</text></g><rect id="use58042" x="291.29" y="422.545" width="33.443" height="31.32" style="fill:none;stroke:#000;stroke-width:1.59px;"/><g id="text71253"><text x="300.505px" y="447.677px" style="font-family:'Monaco';font-size:25px;">1</text></g><rect id="rect71255" x="291.29" y="422.545" width="33.443" height="31.32" style="fill:none;stroke:#000;stroke-width:1.59px;"/><g id="text71344"><text x="300.505px" y="447.677px" style="font-family:'Monaco';font-size:25px;">1</text></g><rect id="rect71346" x="291.29" y="422.545" width="33.443" height="31.32" style="fill:none;stroke:#000;stroke-width:1.59px;"/><g id="text71350"><text x="300.505px" y="447.677px" style="font-family:'Monaco';font-size:25px;">1</text></g><rect id="rect71352" x="291.29" y="422.545" width="33.443" height="31.32" style="fill:none;stroke:#000;stroke-width:1.59px;"/></g><g><g id="text580401" serif:id="text58040"><text x="300.505px" y="447.677px" style="font-family:'Monaco';font-size:25px;">1</text></g><rect id="use580421" serif:id="use58042" x="291.29" y="422.545" width="33.443" height="31.32" style="fill:none;stroke:#000;stroke-width:1.59px;"/><g id="text712531" serif:id="text71253"><text x="300.505px" y="447.677px" style="font-family:'Monaco';font-size:25px;">1</text></g><rect id="rect712551" serif:id="rect71255" x="291.29" y="422.545" width="33.443" height="31.32" style="fill:none;stroke:#000;stroke-width:1.59px;"/><g id="text713441" serif:id="text71344"><text x="300.505px" y="447.677px" style="font-family:'Monaco';font-size:25px;">1</text></g><rect id="rect713461" serif:id="rect71346" x="291.29" y="422.545" width="33.443" height="31.32" style="fill:none;stroke:#000;stroke-width:1.59px;"/><g id="text713501" serif:id="text71350"><text x="300.505px" y="447.677px" style="font-family:'Monaco';font-size:25px;">1</text></g><rect id="rect713521" serif:id="rect71352" x="291.29" y="422.545" width="33.443" height="31.32" style="fill:none;stroke:#000;stroke-width:1.59px;"/></g><g><g id="text580402" serif:id="text58040"><text x="300.505px" y="478.997px" style="font-family:'Monaco';font-size:25px;">1</text></g><rect id="use580422" serif:id="use58042" x="291.29" y="453.864" width="33.443" height="31.32" style="fill:none;stroke:#000;stroke-width:1.59px;"/><g id="text712532" serif:id="text71253"><text x="300.505px" y="478.997px" style="font-family:'Monaco';font-size:25px;">1</text></g><rect id="rect712552" serif:id="rect71255" x="291.29" y="453.864" width="33.443" height="31.32" style="fill:none;stroke:#000;stroke-width:1.59px;"/><g id="text713442" serif:id="text71344"><text x="300.505px" y="478.997px" style="font-family:'Monaco';font-size:25px;">1</text></g><rect id="rect713462" serif:id="rect71346" x="291.29" y="453.864" width="33.443" height="31.32" style="fill:none;stroke:#000;stroke-width:1.59px;"/><g id="text713502" serif:id="text71350"><text x="300.505px" y="478.997px" style="font-family:'Monaco';font-size:25px;">1</text></g><rect id="rect713522" serif:id="rect71352" x="291.29" y="453.864" width="33.443" height="31.32" style="fill:none;stroke:#000;stroke-width:1.59px;"/></g><g><g id="text580403" serif:id="text58040"><text x="300.505px" y="510.316px" style="font-family:'Monaco';font-size:25px;">1</text></g><rect id="use580423" serif:id="use58042" x="291.29" y="485.184" width="33.443" height="31.32" style="fill:none;stroke:#000;stroke-width:1.59px;"/><g id="text712533" serif:id="text71253"><text x="300.505px" y="510.316px" style="font-family:'Monaco';font-size:25px;">1</text></g><rect id="rect712553" serif:id="rect71255" x="291.29" y="485.184" width="33.443" height="31.32" style="fill:none;stroke:#000;stroke-width:1.59px;"/><g id="text713443" serif:id="text71344"><text x="300.505px" y="510.316px" style="font-family:'Monaco';font-size:25px;">1</text></g><rect id="rect713463" serif:id="rect71346" x="291.29" y="485.184" width="33.443" height="31.32" style="fill:none;stroke:#000;stroke-width:1.59px;"/><g id="text713503" serif:id="text71350"><text x="300.505px" y="510.316px" style="font-family:'Monaco';font-size:25px;">1</text></g><rect id="rect713523" serif:id="rect71352" x="291.29" y="485.184" width="33.443" height="31.32" style="fill:none;stroke:#000;stroke-width:1.59px;"/><rect id="rect713524" serif:id="rect71352" x="291.29" y="485.184" width="33.443" height="31.32" style="fill:none;stroke:#000;stroke-width:1.59px;"/></g><g><g id="text580404" serif:id="text58040"><text x="300.505px" y="541.636px" style="font-family:'Monaco';font-size:25px;">1</text></g><rect id="use580424" serif:id="use58042" x="291.29" y="516.504" width="33.443" height="31.32" style="fill:none;stroke:#000;stroke-width:1.59px;"/><g id="text712534" serif:id="text71253"><text x="300.505px" y="541.636px" style="font-family:'Monaco';font-size:25px;">1</text></g><rect id="rect712554" serif:id="rect71255" x="291.29" y="516.504" width="33.443" height="31.32" style="fill:none;stroke:#000;stroke-width:1.59px;"/><g id="text713444" serif:id="text71344"><text x="300.505px" y="541.636px" style="font-family:'Monaco';font-size:25px;">1</text></g><rect id="rect713464" serif:id="rect71346" x="291.29" y="516.504" width="33.443" height="31.32" style="fill:none;stroke:#000;stroke-width:1.59px;"/><g id="text713504" serif:id="text71350"><text x="300.505px" y="541.636px" style="font-family:'Monaco';font-size:25px;">1</text></g><rect id="rect713525" serif:id="rect71352" x="291.29" y="516.504" width="33.443" height="31.32" style="fill:none;stroke:#000;stroke-width:1.59px;"/></g><g><g id="text580405" serif:id="text58040"><text x="300.505px" y="572.956px" style="font-family:'Monaco';font-size:25px;">1</text></g><rect id="use580425" serif:id="use58042" x="291.29" y="547.823" width="33.443" height="31.32" style="fill:none;stroke:#000;stroke-width:1.59px;"/><g id="text712535" serif:id="text71253"><text x="300.505px" y="572.956px" style="font-family:'Monaco';font-size:25px;">1</text></g><rect id="rect712555" serif:id="rect71255" x="291.29" y="547.823" width="33.443" height="31.32" style="fill:none;stroke:#000;stroke-width:1.59px;"/><g id="text713445" serif:id="text71344"><text x="300.505px" y="572.956px" style="font-family:'Monaco';font-size:25px;">1</text></g><rect id="rect713465" serif:id="rect71346" x="291.29" y="547.823" width="33.443" height="31.32" style="fill:none;stroke:#000;stroke-width:1.59px;"/><g id="text713505" serif:id="text71350"><text x="300.505px" y="572.956px" style="font-family:'Monaco';font-size:25px;">1</text></g><rect id="rect713526" serif:id="rect71352" x="291.29" y="547.823" width="33.443" height="31.32" style="fill:none;stroke:#000;stroke-width:1.59px;"/></g><g><g id="text580406" serif:id="text58040"><text x="300.505px" y="604.275px" style="font-family:'Monaco';font-size:25px;">1</text></g><rect id="use580426" serif:id="use58042" x="291.29" y="579.143" width="33.443" height="31.32" style="fill:none;stroke:#000;stroke-width:1.59px;"/><g id="text712536" serif:id="text71253"><text x="300.505px" y="604.275px" style="font-family:'Monaco';font-size:25px;">1</text></g><rect id="rect712556" serif:id="rect71255" x="291.29" y="579.143" width="33.443" height="31.32" style="fill:none;stroke:#000;stroke-width:1.59px;"/><g id="text713446" serif:id="text71344"><text x="300.505px" y="604.275px" style="font-family:'Monaco';font-size:25px;">1</text></g><rect id="rect713466" serif:id="rect71346" x="291.29" y="579.143" width="33.443" height="31.32" style="fill:none;stroke:#000;stroke-width:1.59px;"/><g id="text713506" serif:id="text71350"><text x="300.505px" y="604.275px" style="font-family:'Monaco';font-size:25px;">1</text></g><rect id="rect713527" serif:id="rect71352" x="291.29" y="579.143" width="33.443" height="31.32" style="fill:none;stroke:#000;stroke-width:1.59px;"/></g><g><g id="text580407" serif:id="text58040"><text x="300.505px" y="635.595px" style="font-family:'Monaco';font-size:25px;">1</text></g><rect id="use580427" serif:id="use58042" x="291.29" y="610.463" width="33.443" height="31.32" style="fill:none;stroke:#000;stroke-width:1.59px;"/><g id="text712537" serif:id="text71253"><text x="300.505px" y="635.595px" style="font-family:'Monaco';font-size:25px;">1</text></g><rect id="rect712557" serif:id="rect71255" x="291.29" y="610.463" width="33.443" height="31.32" style="fill:none;stroke:#000;stroke-width:1.59px;"/><g id="text713447" serif:id="text71344"><text x="300.505px" y="635.595px" style="font-family:'Monaco';font-size:25px;">1</text></g><rect id="rect713467" serif:id="rect71346" x="291.29" y="610.463" width="33.443" height="31.32" style="fill:none;stroke:#000;stroke-width:1.59px;"/><g id="text713507" serif:id="text71350"><text x="300.505px" y="635.595px" style="font-family:'Monaco';font-size:25px;">1</text></g><rect id="rect713528" serif:id="rect71352" x="291.29" y="610.463" width="33.443" height="31.32" style="fill:none;stroke:#000;stroke-width:1.59px;"/></g><g><g id="text580408" serif:id="text58040"><text x="300.505px" y="666.915px" style="font-family:'Monaco';font-size:25px;">1</text></g><rect id="use580428" serif:id="use58042" x="291.29" y="641.782" width="33.443" height="31.32" style="fill:none;stroke:#000;stroke-width:1.59px;"/><g id="text712538" serif:id="text71253"><text x="300.505px" y="666.915px" style="font-family:'Monaco';font-size:25px;">1</text></g><rect id="rect712558" serif:id="rect71255" x="291.29" y="641.782" width="33.443" height="31.32" style="fill:none;stroke:#000;stroke-width:1.59px;"/><g id="text713448" serif:id="text71344"><text x="300.505px" y="666.915px" style="font-family:'Monaco';font-size:25px;">1</text></g><rect id="rect713468" serif:id="rect71346" x="291.29" y="641.782" width="33.443" height="31.32" style="fill:none;stroke:#000;stroke-width:1.59px;"/><g id="text713508" serif:id="text71350"><text x="300.505px" y="666.915px" style="font-family:'Monaco';font-size:25px;">1</text></g><rect id="rect713529" serif:id="rect71352" x="291.29" y="641.782" width="33.443" height="31.32" style="fill:none;stroke:#000;stroke-width:1.59px;"/></g></g></g><g><g><g><g id="text580409" serif:id="text58040"><text x="767.453px" y="447.677px" style="font-family:'Monaco';font-size:25px;">3</text></g><rect id="use580429" serif:id="use58042" x="758.239" y="422.545" width="33.443" height="31.32" style="fill:none;stroke:#000;stroke-width:1.59px;"/><rect id="rect712559" serif:id="rect71255" x="758.239" y="422.545" width="33.443" height="31.32" style="fill:none;stroke:#000;stroke-width:1.59px;"/><rect id="rect713469" serif:id="rect71346" x="758.239" y="422.545" width="33.443" height="31.32" style="fill:none;stroke:#000;stroke-width:1.59px;"/><rect id="rect7135210" serif:id="rect71352" x="758.239" y="422.545" width="33.443" height="31.32" style="fill:none;stroke:#000;stroke-width:1.59px;"/></g><g><rect id="use5804210" serif:id="use58042" x="758.239" y="422.545" width="33.443" height="31.32" style="fill:none;stroke:#000;stroke-width:1.59px;"/><rect id="rect7125510" serif:id="rect71255" x="758.239" y="422.545" width="33.443" height="31.32" style="fill:none;stroke:#000;stroke-width:1.59px;"/><rect id="rect7134610" serif:id="rect71346" x="758.239" y="422.545" width="33.443" height="31.32" style="fill:none;stroke:#000;stroke-width:1.59px;"/><rect id="rect7135211" serif:id="rect71352" x="758.239" y="422.545" width="33.443" height="31.32" style="fill:none;stroke:#000;stroke-width:1.59px;"/></g><g><g id="text5804010" serif:id="text58040"><text x="767.453px" y="478.997px" style="font-family:'Monaco';font-size:25px;">3</text></g><rect id="use5804211" serif:id="use58042" x="758.239" y="453.864" width="33.443" height="31.32" style="fill:none;stroke:#000;stroke-width:1.59px;"/><rect id="rect7125511" serif:id="rect71255" x="758.239" y="453.864" width="33.443" height="31.32" style="fill:none;stroke:#000;stroke-width:1.59px;"/><rect id="rect7134611" serif:id="rect71346" x="758.239" y="453.864" width="33.443" height="31.32" style="fill:none;stroke:#000;stroke-width:1.59px;"/><rect id="rect7135212" serif:id="rect71352" x="758.239" y="453.864" width="33.443" height="31.32" style="fill:none;stroke:#000;stroke-width:1.59px;"/></g><g><g id="text5804011" serif:id="text58040"><text x="767.453px" y="510.316px" style="font-family:'Monaco';font-size:25px;">3</text></g><rect id="use5804212" serif:id="use58042" x="758.239" y="485.184" width="33.443" height="31.32" style="fill:none;stroke:#000;stroke-width:1.59px;"/><rect id="rect7125512" serif:id="rect71255" x="758.239" y="485.184" width="33.443" height="31.32" style="fill:none;stroke:#000;stroke-width:1.59px;"/><rect id="rect7134612" serif:id="rect71346" x="758.239" y="485.184" width="33.443" height="31.32" style="fill:none;stroke:#000;stroke-width:1.59px;"/><rect id="rect7135213" serif:id="rect71352" x="758.239" y="485.184" width="33.443" height="31.32" style="fill:none;stroke:#000;stroke-width:1.59px;"/><rect id="rect7135214" serif:id="rect71352" x="758.239" y="485.184" width="33.443" height="31.32" style="fill:none;stroke:#000;stroke-width:1.59px;"/></g><g><g id="text5804012" serif:id="text58040"><text x="767.453px" y="541.636px" style="font-family:'Monaco';font-size:25px;">3</text></g><rect id="use5804213" serif:id="use58042" x="758.239" y="516.504" width="33.443" height="31.32" style="fill:none;stroke:#000;stroke-width:1.59px;"/><rect id="rect7125513" serif:id="rect71255" x="758.239" y="516.504" width="33.443" height="31.32" style="fill:none;stroke:#000;stroke-width:1.59px;"/><rect id="rect7134613" serif:id="rect71346" x="758.239" y="516.504" width="33.443" height="31.32" style="fill:none;stroke:#000;stroke-width:1.59px;"/><rect id="rect7135215" serif:id="rect71352" x="758.239" y="516.504" width="33.443" height="31.32" style="fill:none;stroke:#000;stroke-width:1.59px;"/></g><g><g id="text5804013" serif:id="text58040"><text x="767.453px" y="572.956px" style="font-family:'Monaco';font-size:25px;">3</text></g><rect id="use5804214" serif:id="use58042" x="758.239" y="547.823" width="33.443" height="31.32" style="fill:none;stroke:#000;stroke-width:1.59px;"/><rect id="rect7125514" serif:id="rect71255" x="758.239" y="547.823" width="33.443" height="31.32" style="fill:none;stroke:#000;stroke-width:1.59px;"/><rect id="rect7134614" serif:id="rect71346" x="758.239" y="547.823" width="33.443" height="31.32" style="fill:none;stroke:#000;stroke-width:1.59px;"/><rect id="rect7135216" serif:id="rect71352" x="758.239" y="547.823" width="33.443" height="31.32" style="fill:none;stroke:#000;stroke-width:1.59px;"/></g><g><g id="text5804014" serif:id="text58040"><text x="767.453px" y="604.275px" style="font-family:'Monaco';font-size:25px;">3</text></g><rect id="use5804215" serif:id="use58042" x="758.239" y="579.143" width="33.443" height="31.32" style="fill:none;stroke:#000;stroke-width:1.59px;"/><rect id="rect7125515" serif:id="rect71255" x="758.239" y="579.143" width="33.443" height="31.32" style="fill:none;stroke:#000;stroke-width:1.59px;"/><rect id="rect7134615" serif:id="rect71346" x="758.239" y="579.143" width="33.443" height="31.32" style="fill:none;stroke:#000;stroke-width:1.59px;"/><rect id="rect7135217" serif:id="rect71352" x="758.239" y="579.143" width="33.443" height="31.32" style="fill:none;stroke:#000;stroke-width:1.59px;"/></g><g><g id="text5804015" serif:id="text58040"><text x="767.453px" y="635.595px" style="font-family:'Monaco';font-size:25px;">3</text></g><rect id="use5804216" serif:id="use58042" x="758.239" y="610.463" width="33.443" height="31.32" style="fill:none;stroke:#000;stroke-width:1.59px;"/><rect id="rect7125516" serif:id="rect71255" x="758.239" y="610.463" width="33.443" height="31.32" style="fill:none;stroke:#000;stroke-width:1.59px;"/><rect id="rect7134616" serif:id="rect71346" x="758.239" y="610.463" width="33.443" height="31.32" style="fill:none;stroke:#000;stroke-width:1.59px;"/><rect id="rect7135218" serif:id="rect71352" x="758.239" y="610.463" width="33.443" height="31.32" style="fill:none;stroke:#000;stroke-width:1.59px;"/></g><g><g id="text5804016" serif:id="text58040"><text x="767.453px" y="666.915px" style="font-family:'Monaco';font-size:25px;">3</text></g><rect id="use5804217" serif:id="use58042" x="758.239" y="641.782" width="33.443" height="31.32" style="fill:none;stroke:#000;stroke-width:1.59px;"/><rect id="rect7125517" serif:id="rect71255" x="758.239" y="641.782" width="33.443" height="31.32" style="fill:none;stroke:#000;stroke-width:1.59px;"/><rect id="rect7134617" serif:id="rect71346" x="758.239" y="641.782" width="33.443" height="31.32" style="fill:none;stroke:#000;stroke-width:1.59px;"/><rect id="rect7135219" serif:id="rect71352" x="758.239" y="641.782" width="33.443" height="31.32" style="fill:none;stroke:#000;stroke-width:1.59px;"/></g></g></g><g><g><g id="text5804017" serif:id="text58040"><text x="578.085px" y="447.677px" style="font-family:'Monaco';font-size:25px;">1,2</text></g><rect id="use5804218" serif:id="use58042" x="577.671" y="422.545" width="46.408" height="31.32" style="fill:none;stroke:#000;stroke-width:1.92px;"/></g><g><g id="text5804018" serif:id="text58040"><text x="578.085px" y="447.677px" style="font-family:'Monaco';font-size:25px;">1,2</text></g><rect id="use5804219" serif:id="use58042" x="577.671" y="422.545" width="46.408" height="31.32" style="fill:none;stroke:#000;stroke-width:1.92px;"/></g><g><g id="text5804019" serif:id="text58040"><text x="578.085px" y="478.997px" style="font-family:'Monaco';font-size:25px;">1,2</text></g><rect id="use5804220" serif:id="use58042" x="577.671" y="453.864" width="46.408" height="31.32" style="fill:none;stroke:#000;stroke-width:1.92px;"/></g><g><g id="text5804020" serif:id="text58040"><text x="578.085px" y="510.316px" style="font-family:'Monaco';font-size:25px;">1,2</text></g><rect id="use5804221" serif:id="use58042" x="577.671" y="485.184" width="46.408" height="31.32" style="fill:none;stroke:#000;stroke-width:1.92px;"/></g><g><g id="text5804021" serif:id="text58040"><text x="578.085px" y="541.636px" style="font-family:'Monaco';font-size:25px;">1,2</text></g><rect id="use5804222" serif:id="use58042" x="577.671" y="516.504" width="46.408" height="31.32" style="fill:none;stroke:#000;stroke-width:1.92px;"/></g><g><g id="text5804022" serif:id="text58040"><text x="578.085px" y="572.956px" style="font-family:'Monaco';font-size:25px;">1,2</text></g><rect id="use5804223" serif:id="use58042" x="577.671" y="547.823" width="46.408" height="31.32" style="fill:none;stroke:#000;stroke-width:1.92px;"/></g><g><g id="text5804023" serif:id="text58040"><text x="578.085px" y="604.275px" style="font-family:'Monaco';font-size:25px;">1,2</text></g><rect id="use5804224" serif:id="use58042" x="577.671" y="579.143" width="46.408" height="31.32" style="fill:none;stroke:#000;stroke-width:1.92px;"/></g><g><g id="text5804024" serif:id="text58040"><text x="578.085px" y="635.595px" style="font-family:'Monaco';font-size:25px;">1,2</text></g><rect id="use5804225" serif:id="use58042" x="577.671" y="610.463" width="46.408" height="31.32" style="fill:none;stroke:#000;stroke-width:1.92px;"/></g><g><g id="text5804025" serif:id="text58040"><text x="578.085px" y="666.915px" style="font-family:'Monaco';font-size:25px;">1,2</text></g><rect id="use5804226" serif:id="use58042" x="577.671" y="641.782" width="46.408" height="31.32" style="fill:none;stroke:#000;stroke-width:1.92px;"/></g><rect id="use5804227" serif:id="use58042" x="577.671" y="422.545" width="46.408" height="31.32" style="fill:none;stroke:#000;stroke-width:1.92px;"/></g><g><g><g id="text5804026" serif:id="text58040"><text x="683.863px" y="444.833px" style="font-family:'Monaco';font-size:25px;">+</text></g><rect id="use5804228" serif:id="use58042" x="674.637" y="422.545" width="33.443" height="31.32" style="fill:none;stroke:#000;stroke-width:1.59px;"/><rect id="rect7125518" serif:id="rect71255" x="674.637" y="422.545" width="33.443" height="31.32" style="fill:none;stroke:#000;stroke-width:1.59px;"/><rect id="rect7134618" serif:id="rect71346" x="674.637" y="422.545" width="33.443" height="31.32" style="fill:none;stroke:#000;stroke-width:1.59px;"/><rect id="rect7135220" serif:id="rect71352" x="674.637" y="422.545" width="33.443" height="31.32" style="fill:none;stroke:#000;stroke-width:1.59px;"/></g><g><g id="text5804027" serif:id="text58040"><text x="683.863px" y="476.152px" style="font-family:'Monaco';font-size:25px;">+</text></g><rect id="use5804229" serif:id="use58042" x="674.637" y="453.864" width="33.443" height="31.32" style="fill:none;stroke:#000;stroke-width:1.59px;"/><rect id="rect7125519" serif:id="rect71255" x="674.637" y="453.864" width="33.443" height="31.32" style="fill:none;stroke:#000;stroke-width:1.59px;"/><rect id="rect7134619" serif:id="rect71346" x="674.637" y="453.864" width="33.443" height="31.32" style="fill:none;stroke:#000;stroke-width:1.59px;"/><rect id="rect7135221" serif:id="rect71352" x="674.637" y="453.864" width="33.443" height="31.32" style="fill:none;stroke:#000;stroke-width:1.59px;"/></g><g><g id="text5804028" serif:id="text58040"><text x="683.863px" y="507.472px" style="font-family:'Monaco';font-size:25px;">+</text></g><rect id="use5804230" serif:id="use58042" x="674.637" y="485.184" width="33.443" height="31.32" style="fill:none;stroke:#000;stroke-width:1.59px;"/><rect id="rect7125520" serif:id="rect71255" x="674.637" y="485.184" width="33.443" height="31.32" style="fill:none;stroke:#000;stroke-width:1.59px;"/><rect id="rect7134620" serif:id="rect71346" x="674.637" y="485.184" width="33.443" height="31.32" style="fill:none;stroke:#000;stroke-width:1.59px;"/><rect id="rect7135222" serif:id="rect71352" x="674.637" y="485.184" width="33.443" height="31.32" style="fill:none;stroke:#000;stroke-width:1.59px;"/></g><g><g id="text5804029" serif:id="text58040"><text x="683.863px" y="538.792px" style="font-family:'Monaco';font-size:25px;">+</text></g><rect id="use5804231" serif:id="use58042" x="674.637" y="516.504" width="33.443" height="31.32" style="fill:none;stroke:#000;stroke-width:1.59px;"/><rect id="rect7125521" serif:id="rect71255" x="674.637" y="516.504" width="33.443" height="31.32" style="fill:none;stroke:#000;stroke-width:1.59px;"/><rect id="rect7134621" serif:id="rect71346" x="674.637" y="516.504" width="33.443" height="31.32" style="fill:none;stroke:#000;stroke-width:1.59px;"/><rect id="rect7135223" serif:id="rect71352" x="674.637" y="516.504" width="33.443" height="31.32" style="fill:none;stroke:#000;stroke-width:1.59px;"/></g><g><g id="text5804030" serif:id="text58040"><text x="683.863px" y="570.112px" style="font-family:'Monaco';font-size:25px;">+</text></g><rect id="use5804232" serif:id="use58042" x="674.637" y="547.823" width="33.443" height="31.32" style="fill:none;stroke:#000;stroke-width:1.59px;"/><rect id="rect7125522" serif:id="rect71255" x="674.637" y="547.823" width="33.443" height="31.32" style="fill:none;stroke:#000;stroke-width:1.59px;"/><rect id="rect7134622" serif:id="rect71346" x="674.637" y="547.823" width="33.443" height="31.32" style="fill:none;stroke:#000;stroke-width:1.59px;"/><rect id="rect7135224" serif:id="rect71352" x="674.637" y="547.823" width="33.443" height="31.32" style="fill:none;stroke:#000;stroke-width:1.59px;"/></g><g><g id="text5804031" serif:id="text58040"><text x="683.863px" y="601.431px" style="font-family:'Monaco';font-size:25px;">+</text></g><rect id="use5804233" serif:id="use58042" x="674.637" y="579.143" width="33.443" height="31.32" style="fill:none;stroke:#000;stroke-width:1.59px;"/><rect id="rect7125523" serif:id="rect71255" x="674.637" y="579.143" width="33.443" height="31.32" style="fill:none;stroke:#000;stroke-width:1.59px;"/><rect id="rect7134623" serif:id="rect71346" x="674.637" y="579.143" width="33.443" height="31.32" style="fill:none;stroke:#000;stroke-width:1.59px;"/><rect id="rect7135225" serif:id="rect71352" x="674.637" y="579.143" width="33.443" height="31.32" style="fill:none;stroke:#000;stroke-width:1.59px;"/></g><g><g id="text5804032" serif:id="text58040"><text x="683.863px" y="632.751px" style="font-family:'Monaco';font-size:25px;">+</text></g><rect id="use5804234" serif:id="use58042" x="674.637" y="610.463" width="33.443" height="31.32" style="fill:none;stroke:#000;stroke-width:1.59px;"/><rect id="rect7125524" serif:id="rect71255" x="674.637" y="610.463" width="33.443" height="31.32" style="fill:none;stroke:#000;stroke-width:1.59px;"/><rect id="rect7134624" serif:id="rect71346" x="674.637" y="610.463" width="33.443" height="31.32" style="fill:none;stroke:#000;stroke-width:1.59px;"/><rect id="rect7135226" serif:id="rect71352" x="674.637" y="610.463" width="33.443" height="31.32" style="fill:none;stroke:#000;stroke-width:1.59px;"/></g><g><g id="text5804033" serif:id="text58040"><text x="683.863px" y="664.071px" style="font-family:'Monaco';font-size:25px;">+</text></g><rect id="use5804235" serif:id="use58042" x="674.637" y="641.782" width="33.443" height="31.32" style="fill:none;stroke:#000;stroke-width:1.59px;"/><rect id="rect7125525" serif:id="rect71255" x="674.637" y="641.782" width="33.443" height="31.32" style="fill:none;stroke:#000;stroke-width:1.59px;"/><rect id="rect7134625" serif:id="rect71346" x="674.637" y="641.782" width="33.443" height="31.32" style="fill:none;stroke:#000;stroke-width:1.59px;"/><rect id="rect7135227" serif:id="rect71352" x="674.637" y="641.782" width="33.443" height="31.32" style="fill:none;stroke:#000;stroke-width:1.59px;"/></g></g><rect id="rect58151" x="132.403" y="418.632" width="100.037" height="39.145" style="fill:none;stroke:#000;stroke-width:1.35px;"/><g><g id="text58157"><text x="354.39px" y="498.255px" style="font-family:'Monaco';font-size:32.061px;">Const_Gen</text></g><rect id="rect58159" x="354.034" y="468.632" width="173.885" height="39.145" style="fill:none;stroke:#000;stroke-width:1.45px;"/></g><g><g id="text581571" serif:id="text58157"><text x="354.39px" y="498.255px" style="font-family:'Monaco';font-size:32.061px;">Const_Gen</text></g><rect id="rect581591" serif:id="rect58159" x="354.034" y="468.632" width="173.885" height="39.145" style="fill:none;stroke:#000;stroke-width:1.45px;"/></g><g><g id="text581572" serif:id="text58157"><text x="354.39px" y="537.4px" style="font-family:'Monaco';font-size:32.061px;">Const_Gen</text></g><rect id="rect581592" serif:id="rect58159" x="354.034" y="507.777" width="173.885" height="39.145" style="fill:none;stroke:#000;stroke-width:1.45px;"/></g><g><g id="text581573" serif:id="text58157"><text x="354.39px" y="576.544px" style="font-family:'Monaco';font-size:32.061px;">Const_Gen</text></g><rect id="rect581593" serif:id="rect58159" x="354.034" y="546.922" width="173.885" height="39.145" style="fill:none;stroke:#000;stroke-width:1.45px;"/></g><g><g id="text581574" serif:id="text58157"><text x="354.39px" y="615.689px" style="font-family:'Monaco';font-size:32.061px;">Const_Gen</text></g><rect id="rect581594" serif:id="rect58159" x="354.034" y="586.066" width="173.885" height="39.145" style="fill:none;stroke:#000;stroke-width:1.45px;"/></g><g><g id="text581575" serif:id="text58157"><text x="354.39px" y="654.834px" style="font-family:'Monaco';font-size:32.061px;">Const_Gen</text></g><rect id="rect581595" serif:id="rect58159" x="354.034" y="625.211" width="173.885" height="39.145" style="fill:none;stroke:#000;stroke-width:1.45px;"/></g><g><g id="text581576" serif:id="text58157"><text x="354.39px" y="693.979px" style="font-family:'Monaco';font-size:32.061px;">Const_Gen</text></g><rect id="rect581596" serif:id="rect58159" x="354.034" y="664.356" width="173.885" height="39.145" style="fill:none;stroke:#000;stroke-width:1.45px;"/></g><g><g id="text581577" serif:id="text58157"><text x="354.39px" y="733.124px" style="font-family:'Monaco';font-size:32.061px;">Const_Gen</text></g><rect id="rect581597" serif:id="rect58159" x="354.034" y="703.501" width="173.885" height="39.145" style="fill:none;stroke:#000;stroke-width:1.45px;"/></g><g><g id="text581578" serif:id="text58157"><text x="354.39px" y="772.269px" style="font-family:'Monaco';font-size:32.061px;">Const_Gen</text></g><rect id="rect581598" serif:id="rect58159" x="354.034" y="742.646" width="173.885" height="39.145" style="fill:none;stroke:#000;stroke-width:1.45px;"/></g><path d="M527.92,628.398l0,-6.851l39.003,0l0,-6.361l9.786,9.787l-9.786,9.786l0,-6.361l-39.003,0Z" style="stroke:#000;stroke-width:1px;stroke-linejoin:round;stroke-miterlimit:1.5;"/><path d="M624.956,550.347l0,-6.851l39.003,0l0,-6.361l9.786,9.787l-9.786,9.786l0,-6.361l-39.003,0Z" style="stroke:#000;stroke-width:1px;stroke-linejoin:round;stroke-miterlimit:1.5;"/><path d="M708.08,551.248l0,-6.85l39.004,0l0,-6.361l9.786,9.786l-9.786,9.786l0,-6.361l-39.004,0Z" style="stroke:#000;stroke-width:1px;stroke-linejoin:round;stroke-miterlimit:1.5;"/><g transform="matrix(1,0,0,1,-133.764,-655.019)"><text x="170.792px" y="704.624px" style="font-family:'Monaco';font-size:50px;">Map_t 1 (Map_s 8 (</text><text x="290.812px" y="758.798px" style="font-family:'Monaco';font-size:50px;">Add .</text><text x="290.812px" y="812.973px" style="font-family:'Monaco';font-size:50px;">(Fork_Join</text><text x="410.831px" y="867.148px" style="font-family:'Monaco';font-size:50px;">Id</text><text x="410.831px" y="921.323px" style="font-family:'Monaco';font-size:50px;">(Const_Gen 2)</text><text x="290.812px" y="975.498px" style="font-family:'Monaco';font-size:50px;">) . Add_Unit Int</text><text x="170.792px" y="1029.67px" style="font-family:'Monaco';font-size:50px;">)) . Map_t 1 (Up_1d_s 8)</text></g><path d="M74.234,441.63l0,-6.851l46.448,0l0,-6.361l9.786,9.786l-9.786,9.787l0,-6.361l-46.448,0Z" style="stroke:#000;stroke-width:1px;stroke-linejoin:round;stroke-miterlimit:1.5;"/><path d="M233.44,441.63l0,-6.851l46.449,0l0,-6.361l9.786,9.786l-9.786,9.787l0,-6.361l-46.449,0Z" style="stroke:#000;stroke-width:1px;stroke-linejoin:round;stroke-miterlimit:1.5;"/><path d="M324.999,441.63l0,-6.851l241.924,0l0,-6.361l9.786,9.786l-9.786,9.787l0,-6.361l-241.924,0Z" style="stroke:#000;stroke-width:1px;stroke-linejoin:round;stroke-miterlimit:1.5;"/></g></svg>