<svg width="290" height="620" xmlns="http://www.w3.org/2000/svg" xmlns:xlink="http://www.w3.org/1999/xlink" overflow="hidden"><defs><clipPath id="clip0"><path d="M495 86 785 86 785 706 495 706Z" fill-rule="evenodd" clip-rule="evenodd"/></clipPath><clipPath id="clip1"><path d="M496 87 784 87 784 706 496 706Z" fill-rule="evenodd" clip-rule="evenodd"/></clipPath><clipPath id="clip2"><path d="M496 87 784 87 784 706 496 706Z" fill-rule="evenodd" clip-rule="evenodd"/></clipPath><clipPath id="clip3"><path d="M496 87 784 87 784 706 496 706Z" fill-rule="evenodd" clip-rule="evenodd"/></clipPath></defs><g clip-path="url(#clip0)" transform="translate(-495 -86)"><g clip-path="url(#clip1)"><g clip-path="url(#clip2)"><g clip-path="url(#clip3)"><path d="M347.229-94.7661 635.229-94.7661 635.229 524.175 347.229 524.175Z" fill="#FFFFFF" transform="matrix(1 0 -0 1.0001 148.771 181.775)"/><text font-family="Courier New,Courier New_MSFontService,sans-serif" font-weight="400" font-size="30" transform="matrix(0.74036 0 0 0.740431 500.072 456)">sseq <tspan x="89.9999" y="0">4 </tspan>(tseq <tspan x="234" y="0">4 0 </tspan>int)</text><path d="M534.933 377.213 578.614 377.213 578.614 425.337 534.933 425.337Z" stroke="#000000" stroke-width="4.44216" stroke-linecap="round" stroke-linejoin="round" stroke-dasharray="17.7686 17.7686" fill="none" transform="matrix(1 0 -0 1.0001 148.771 181.775)"/><text font-family="Courier New,Courier New_MSFontService,sans-serif" font-weight="400" font-size="30" transform="matrix(0.74036 0 0 0.740431 698.88 589)">7</text><path d="M534.933 473.46 578.614 473.46 578.614 521.584 534.933 521.584Z" stroke="#000000" stroke-width="4.44216" stroke-linecap="round" stroke-linejoin="round" stroke-dasharray="17.7686 17.7686" fill="none" transform="matrix(1 0 -0 1.0001 148.771 181.775)"/><text font-family="Courier New,Courier New_MSFontService,sans-serif" font-weight="400" font-size="30" transform="matrix(0.74036 0 0 0.740431 692.216 685)">15</text><path d="M534.933 425.337 578.614 425.337 578.614 473.46 534.933 473.46Z" stroke="#000000" stroke-width="4.44216" stroke-linecap="round" stroke-linejoin="round" stroke-dasharray="17.7686 17.7686" fill="none" transform="matrix(1 0 -0 1.0001 148.771 181.775)"/><text font-family="Courier New,Courier New_MSFontService,sans-serif" font-weight="400" font-size="30" transform="matrix(0.74036 0 0 0.740431 692.216 637)">11</text><path d="M534.933 329.09 578.614 329.09 578.614 377.213 534.933 377.213Z" stroke="#000000" stroke-width="4.44216" stroke-linecap="round" stroke-linejoin="round" stroke-dasharray="17.7686 17.7686" fill="none" transform="matrix(1 0 -0 1.0001 148.771 181.775)"/><text font-family="Courier New,Courier New_MSFontService,sans-serif" font-weight="400" font-size="30" transform="matrix(0.74036 0 0 0.740431 698.88 541)">3</text><path d="M491.252 425.337 534.933 425.337 534.933 473.46 491.252 473.46Z" stroke="#000000" stroke-width="4.44216" stroke-linecap="round" stroke-linejoin="round" stroke-dasharray="17.7686 17.7686" fill="none" transform="matrix(1 0 -0 1.0001 148.771 181.775)"/><text font-family="Courier New,Courier New_MSFontService,sans-serif" font-weight="400" font-size="30" transform="matrix(0.74036 0 0 0.740431 648.535 637)">10</text><path d="M491.252 377.213 534.933 377.213 534.933 425.337 491.252 425.337Z" stroke="#000000" stroke-width="4.44216" stroke-linecap="round" stroke-linejoin="round" stroke-dasharray="17.7686 17.7686" fill="none" transform="matrix(1 0 -0 1.0001 148.771 181.775)"/><text font-family="Courier New,Courier New_MSFontService,sans-serif" font-weight="400" font-size="30" transform="matrix(0.74036 0 0 0.740431 655.199 589)">6</text><path d="M491.252 329.09 534.933 329.09 534.933 377.213 491.252 377.213Z" stroke="#000000" stroke-width="4.44216" stroke-linecap="round" stroke-linejoin="round" stroke-dasharray="17.7686 17.7686" fill="none" transform="matrix(1 0 -0 1.0001 148.771 181.775)"/><text font-family="Courier New,Courier New_MSFontService,sans-serif" font-weight="400" font-size="30" transform="matrix(0.74036 0 0 0.740431 655.199 541)">2</text><path d="M491.252 473.46 534.933 473.46 534.933 521.584 491.252 521.584Z" stroke="#000000" stroke-width="4.44216" stroke-linecap="round" stroke-linejoin="round" stroke-dasharray="17.7686 17.7686" fill="none" transform="matrix(1 0 -0 1.0001 148.771 181.775)"/><text font-family="Courier New,Courier New_MSFontService,sans-serif" font-weight="400" font-size="30" transform="matrix(0.74036 0 0 0.740431 648.535 685)">14</text><path d="M447.571 329.09 491.252 329.09 491.252 377.213 447.571 377.213Z" stroke="#000000" stroke-width="4.44216" stroke-linecap="round" stroke-linejoin="round" stroke-dasharray="17.7686 17.7686" fill="none" transform="matrix(1 0 -0 1.0001 148.771 181.775)"/><text font-family="Courier New,Courier New_MSFontService,sans-serif" font-weight="400" font-size="30" transform="matrix(0.74036 0 0 0.740431 611.518 541)">1</text><path d="M447.571 377.213 491.252 377.213 491.252 425.337 447.571 425.337Z" stroke="#000000" stroke-width="4.44216" stroke-linecap="round" stroke-linejoin="round" stroke-dasharray="17.7686 17.7686" fill="none" transform="matrix(1 0 -0 1.0001 148.771 181.775)"/><text font-family="Courier New,Courier New_MSFontService,sans-serif" font-weight="400" font-size="30" transform="matrix(0.74036 0 0 0.740431 611.518 589)">5</text><path d="M447.571 473.46 491.252 473.46 491.252 521.584 447.571 521.584Z" stroke="#000000" stroke-width="4.44216" stroke-linecap="round" stroke-linejoin="round" stroke-dasharray="17.7686 17.7686" fill="none" transform="matrix(1 0 -0 1.0001 148.771 181.775)"/><text font-family="Courier New,Courier New_MSFontService,sans-serif" font-weight="400" font-size="30" transform="matrix(0.74036 0 0 0.740431 604.854 685)">13</text><path d="M447.571 425.337 491.252 425.337 491.252 473.46 447.571 473.46Z" stroke="#000000" stroke-width="4.44216" stroke-linecap="round" stroke-linejoin="round" stroke-dasharray="17.7686 17.7686" fill="none" transform="matrix(1 0 -0 1.0001 148.771 181.775)"/><text font-family="Courier New,Courier New_MSFontService,sans-serif" font-weight="400" font-size="30" transform="matrix(0.74036 0 0 0.740431 611.518 637)">9</text><path d="M403.889 329.09 447.571 329.09 447.571 377.213 403.889 377.213Z" stroke="#000000" stroke-width="4.44216" stroke-linecap="round" stroke-linejoin="round" stroke-dasharray="17.7686 17.7686" fill="none" transform="matrix(1 0 -0 1.0001 148.771 181.775)"/><text font-family="Courier New,Courier New_MSFontService,sans-serif" font-weight="400" font-size="30" transform="matrix(0.74036 0 0 0.740431 567.837 541)">0</text><path d="M403.889 377.213 447.571 377.213 447.571 425.337 403.889 425.337Z" stroke="#000000" stroke-width="4.44216" stroke-linecap="round" stroke-linejoin="round" stroke-dasharray="17.7686 17.7686" fill="none" transform="matrix(1 0 -0 1.0001 148.771 181.775)"/><text font-family="Courier New,Courier New_MSFontService,sans-serif" font-weight="400" font-size="30" transform="matrix(0.74036 0 0 0.740431 567.837 589)">4</text><path d="M403.889 473.46 447.571 473.46 447.571 521.584 403.889 521.584Z" stroke="#000000" stroke-width="4.44216" stroke-linecap="round" stroke-linejoin="round" stroke-dasharray="17.7686 17.7686" fill="none" transform="matrix(1 0 -0 1.0001 148.771 181.775)"/><text font-family="Courier New,Courier New_MSFontService,sans-serif" font-weight="400" font-size="30" transform="matrix(0.74036 0 0 0.740431 561.172 685)">12</text><path d="M403.889 425.337 447.571 425.337 447.571 473.46 403.889 473.46Z" stroke="#000000" stroke-width="4.44216" stroke-linecap="round" stroke-linejoin="round" stroke-dasharray="17.7686 17.7686" fill="none" transform="matrix(1 0 -0 1.0001 148.771 181.775)"/><text font-family="Courier New,Courier New_MSFontService,sans-serif" font-weight="400" font-size="30" transform="matrix(0.74036 0 0 0.740431 567.837 637)">8<tspan x="-91.5295" y="-711.748">tseq </tspan><tspan x="-1.52951" y="-711.748">4 0 </tspan><tspan x="70.4705" y="-711.748">(</tspan><tspan x="88.4705" y="-711.748">sseq </tspan><tspan x="178.471" y="-711.748">4 </tspan>int)</text><path d="M534.933 30.3548 578.614 30.3548 578.614 78.4781 534.933 78.4781Z" stroke="#000000" stroke-width="4.44216" stroke-linecap="round" stroke-linejoin="round" stroke-dasharray="17.7686 17.7686" fill="none" transform="matrix(1 0 -0 1.0001 148.771 181.775)"/><text font-family="Courier New,Courier New_MSFontService,sans-serif" font-weight="400" font-size="30" transform="matrix(0.74036 0 0 0.740431 692.216 242)">13</text><path d="M534.933 126.602 578.614 126.602 578.614 174.725 534.933 174.725Z" stroke="#000000" stroke-width="4.44216" stroke-linecap="round" stroke-linejoin="round" stroke-dasharray="17.7686 17.7686" fill="none" transform="matrix(1 0 -0 1.0001 148.771 181.775)"/><text font-family="Courier New,Courier New_MSFontService,sans-serif" font-weight="400" font-size="30" transform="matrix(0.74036 0 0 0.740431 692.216 338)">15</text><path d="M534.933 78.4781 578.614 78.4781 578.614 126.602 534.933 126.602Z" stroke="#000000" stroke-width="4.44216" stroke-linecap="round" stroke-linejoin="round" stroke-dasharray="17.7686 17.7686" fill="none" transform="matrix(1 0 -0 1.0001 148.771 181.775)"/><text font-family="Courier New,Courier New_MSFontService,sans-serif" font-weight="400" font-size="30" transform="matrix(0.74036 0 0 0.740431 692.216 290)">14</text><path d="M534.933-17.7686 578.614-17.7686 578.614 30.3548 534.933 30.3548Z" stroke="#000000" stroke-width="4.44216" stroke-linecap="round" stroke-linejoin="round" stroke-dasharray="17.7686 17.7686" fill="none" transform="matrix(1 0 -0 1.0001 148.771 181.775)"/><text font-family="Courier New,Courier New_MSFontService,sans-serif" font-weight="400" font-size="30" transform="matrix(0.74036 0 0 0.740431 692.216 194)">12</text><path d="M491.252 78.4781 534.933 78.4781 534.933 126.602 491.252 126.602Z" stroke="#000000" stroke-width="4.44216" stroke-linecap="round" stroke-linejoin="round" stroke-dasharray="17.7686 17.7686" fill="none" transform="matrix(1 0 -0 1.0001 148.771 181.775)"/><text font-family="Courier New,Courier New_MSFontService,sans-serif" font-weight="400" font-size="30" transform="matrix(0.74036 0 0 0.740431 648.535 290)">10</text><path d="M491.252 30.3548 534.933 30.3548 534.933 78.4781 491.252 78.4781Z" stroke="#000000" stroke-width="4.44216" stroke-linecap="round" stroke-linejoin="round" stroke-dasharray="17.7686 17.7686" fill="none" transform="matrix(1 0 -0 1.0001 148.771 181.775)"/><text font-family="Courier New,Courier New_MSFontService,sans-serif" font-weight="400" font-size="30" transform="matrix(0.74036 0 0 0.740431 655.199 242)">9</text><path d="M491.252-17.7686 534.933-17.7686 534.933 30.3548 491.252 30.3548Z" stroke="#000000" stroke-width="4.44216" stroke-linecap="round" stroke-linejoin="round" stroke-dasharray="17.7686 17.7686" fill="none" transform="matrix(1 0 -0 1.0001 148.771 181.775)"/><text font-family="Courier New,Courier New_MSFontService,sans-serif" font-weight="400" font-size="30" transform="matrix(0.74036 0 0 0.740431 655.199 194)">8</text><path d="M491.252 126.602 534.933 126.602 534.933 174.725 491.252 174.725Z" stroke="#000000" stroke-width="4.44216" stroke-linecap="round" stroke-linejoin="round" stroke-dasharray="17.7686 17.7686" fill="none" transform="matrix(1 0 -0 1.0001 148.771 181.775)"/><text font-family="Courier New,Courier New_MSFontService,sans-serif" font-weight="400" font-size="30" transform="matrix(0.74036 0 0 0.740431 648.535 338)">11</text><path d="M447.571-17.7686 491.252-17.7686 491.252 30.3548 447.571 30.3548Z" stroke="#000000" stroke-width="4.44216" stroke-linecap="round" stroke-linejoin="round" stroke-dasharray="17.7686 17.7686" fill="none" transform="matrix(1 0 -0 1.0001 148.771 181.775)"/><text font-family="Courier New,Courier New_MSFontService,sans-serif" font-weight="400" font-size="30" transform="matrix(0.74036 0 0 0.740431 611.518 194)">3</text><path d="M447.571 30.3548 491.252 30.3548 491.252 78.4781 447.571 78.4781Z" stroke="#000000" stroke-width="4.44216" stroke-linecap="round" stroke-linejoin="round" stroke-dasharray="17.7686 17.7686" fill="none" transform="matrix(1 0 -0 1.0001 148.771 181.775)"/><text font-family="Courier New,Courier New_MSFontService,sans-serif" font-weight="400" font-size="30" transform="matrix(0.74036 0 0 0.740431 611.518 242)">4</text><path d="M447.571 126.602 491.252 126.602 491.252 174.725 447.571 174.725Z" stroke="#000000" stroke-width="4.44216" stroke-linecap="round" stroke-linejoin="round" stroke-dasharray="17.7686 17.7686" fill="none" transform="matrix(1 0 -0 1.0001 148.771 181.775)"/><text font-family="Courier New,Courier New_MSFontService,sans-serif" font-weight="400" font-size="30" transform="matrix(0.74036 0 0 0.740431 611.518 338)">7</text><path d="M447.571 78.4781 491.252 78.4781 491.252 126.602 447.571 126.602Z" stroke="#000000" stroke-width="4.44216" stroke-linecap="round" stroke-linejoin="round" stroke-dasharray="17.7686 17.7686" fill="none" transform="matrix(1 0 -0 1.0001 148.771 181.775)"/><text font-family="Courier New,Courier New_MSFontService,sans-serif" font-weight="400" font-size="30" transform="matrix(0.74036 0 0 0.740431 611.518 290)">6</text><path d="M403.889-17.7686 447.571-17.7686 447.571 30.3548 403.889 30.3548Z" stroke="#000000" stroke-width="4.44216" stroke-linecap="round" stroke-linejoin="round" stroke-dasharray="17.7686 17.7686" fill="none" transform="matrix(1 0 -0 1.0001 148.771 181.775)"/><text font-family="Courier New,Courier New_MSFontService,sans-serif" font-weight="400" font-size="30" transform="matrix(0.74036 0 0 0.740431 567.837 194)">0</text><path d="M403.889 30.3548 447.571 30.3548 447.571 78.4781 403.889 78.4781Z" stroke="#000000" stroke-width="4.44216" stroke-linecap="round" stroke-linejoin="round" stroke-dasharray="17.7686 17.7686" fill="none" transform="matrix(1 0 -0 1.0001 148.771 181.775)"/><text font-family="Courier New,Courier New_MSFontService,sans-serif" font-weight="400" font-size="30" transform="matrix(0.74036 0 0 0.740431 567.837 242)">1</text><path d="M403.889 126.602 447.571 126.602 447.571 174.725 403.889 174.725Z" stroke="#000000" stroke-width="4.44216" stroke-linecap="round" stroke-linejoin="round" stroke-dasharray="17.7686 17.7686" fill="none" transform="matrix(1 0 -0 1.0001 148.771 181.775)"/><text font-family="Courier New,Courier New_MSFontService,sans-serif" font-weight="400" font-size="30" transform="matrix(0.74036 0 0 0.740431 567.837 338)">3</text><path d="M403.889 78.4781 447.571 78.4781 447.571 126.602 403.889 126.602Z" stroke="#000000" stroke-width="4.44216" stroke-linecap="round" stroke-linejoin="round" stroke-dasharray="17.7686 17.7686" fill="none" transform="matrix(1 0 -0 1.0001 148.771 181.775)"/><text font-family="Courier New,Courier New_MSFontService,sans-serif" font-weight="400" font-size="30" transform="matrix(0.74036 0 0 0.740431 567.837 290)">2</text></g></g></g></g></svg>